<svg width="24" height="24" viewBox="0 0 24 24" fill="none" xmlns="http://www.w3.org/2000/svg">
<path d="M12 5.14287C12.9468 5.14287 13.7143 4.37535 13.7143 3.42858C13.7143 2.48181 12.9468 1.71429 12 1.71429C11.0532 1.71429 10.2857 2.48181 10.2857 3.42858C10.2857 4.37535 11.0532 5.14287 12 5.14287Z" fill="#CE0A86"/>
<path d="M20.5714 10.2857C21.5182 10.2857 22.2857 9.51818 22.2857 8.5714C22.2857 7.62463 21.5182 6.85712 20.5714 6.85712C19.6246 6.85712 18.8571 7.62463 18.8571 8.5714C18.8571 9.51818 19.6246 10.2857 20.5714 10.2857Z" fill="#CE0A86"/>
<path d="M3.42858 10.2857C4.37535 10.2857 5.14287 9.51818 5.14287 8.5714C5.14287 7.62463 4.37535 6.85712 3.42858 6.85712C2.48181 6.85712 1.71429 7.62463 1.71429 8.5714C1.71429 9.51818 2.48181 10.2857 3.42858 10.2857Z" fill="#CE0A86"/>
<path d="M18 22.2857L6 22.2857V20.2946C6 19.2566 6.618 18.318 7.57714 17.9212C8.54486 17.52 9.98914 17.1429 12 17.1429C14.0109 17.1429 15.4551 17.52 16.4229 17.9212C17.382 18.318 18 19.2566 18 20.2946V22.2857Z" fill="#CE0A86"/>
<path d="M8.57141 12C8.57141 10.1066 10.1066 8.57141 12 8.57141C13.8934 8.57141 15.4286 10.1066 15.4286 12C15.4286 13.8934 13.8934 16.2857 12 16.2857C10.1066 16.2857 8.57141 13.8934 8.57141 12Z" fill="#CE0A86"/>
</svg>
